<?xml version="1.0" encoding="UTF-8"?>
<svg xmlns="http://www.w3.org/2000/svg" xmlns:xlink="http://www.w3.org/1999/xlink" width="50pt" height="50pt" viewBox="0 0 50 50" version="1.1">
<g id="surface1">
<path style=" stroke:none;fill-rule:nonzero;fill:rgb(100%,100%,100%);fill-opacity:1;" d="M 44.644531 21.875 L 41.964844 21.875 L 41.964844 14.84375 C 41.964844 6.660156 34.351562 0 25 0 C 15.648438 0 8.035156 6.660156 8.035156 14.84375 L 8.035156 21.875 L 5.355469 21.875 C 2.398438 21.875 0 23.976562 0 26.5625 L 0 45.3125 C 0 47.898438 2.398438 50 5.355469 50 L 44.644531 50 C 47.601562 50 50 47.898438 50 45.3125 L 50 26.5625 C 50 23.976562 47.601562 21.875 44.644531 21.875 Z M 33.035156 21.875 L 16.964844 21.875 L 16.964844 14.84375 C 16.964844 10.96875 20.570312 7.8125 25 7.8125 C 29.429688 7.8125 33.035156 10.96875 33.035156 14.84375 Z M 33.035156 21.875 "/>
</g>
</svg>
