<?xml version="1.0" encoding="UTF-8"?>
<svg xmlns="http://www.w3.org/2000/svg" xmlns:xlink="http://www.w3.org/1999/xlink" width="50pt" height="50pt" viewBox="0 0 50 50" version="1.1">
<g id="surface1">
<path style=" stroke:none;fill-rule:nonzero;fill:rgb(100%,100%,100%);fill-opacity:1;" d="M 25 0.78125 C 11.625 0.78125 0.78125 11.625 0.78125 25 C 0.78125 38.375 11.625 49.21875 25 49.21875 C 38.375 49.21875 49.21875 38.375 49.21875 25 C 49.21875 11.625 38.375 0.78125 25 0.78125 Z M 25 44.53125 C 14.207031 44.53125 5.46875 35.796875 5.46875 25 C 5.46875 14.207031 14.203125 5.46875 25 5.46875 C 35.792969 5.46875 44.53125 14.203125 44.53125 25 C 44.53125 35.792969 35.796875 44.53125 25 44.53125 Z M 35.785156 36.542969 C 30.605469 27.140625 30.878906 27.613281 30.582031 27.160156 C 32.953125 25.804688 34.4375 23.101562 34.4375 20.015625 C 34.4375 14.886719 31.484375 11.6875 24.527344 11.6875 L 16.84375 11.6875 C 16.199219 11.6875 15.671875 12.214844 15.671875 12.859375 L 15.671875 37.109375 C 15.671875 37.753906 16.199219 38.28125 16.84375 38.28125 L 20.609375 38.28125 C 21.257812 38.28125 21.78125 37.753906 21.78125 37.109375 L 21.78125 28.9375 L 24.902344 28.9375 L 29.542969 37.660156 C 29.746094 38.042969 30.144531 38.28125 30.578125 38.28125 L 34.757812 38.28125 C 35.652344 38.28125 36.214844 37.324219 35.785156 36.542969 Z M 25.089844 23.429688 L 21.78125 23.429688 L 21.78125 17.164062 L 24.457031 17.164062 C 27.621094 17.164062 28.257812 18.347656 28.257812 20.261719 C 28.257812 22.304688 27.132812 23.429688 25.089844 23.429688 Z M 25.089844 23.429688 "/>
</g>
</svg>
