<?xml version="1.0" encoding="UTF-8"?>
<svg xmlns="http://www.w3.org/2000/svg" xmlns:xlink="http://www.w3.org/1999/xlink" width="50pt" height="50pt" viewBox="0 0 50 50" version="1.1">
<g id="surface1">
<path style=" stroke:none;fill-rule:nonzero;fill:rgb(100%,100%,100%);fill-opacity:1;" d="M 48.984375 8.996094 L 26.097656 0.199219 C 25.390625 -0.0664062 24.609375 -0.0664062 23.902344 0.199219 L 1.015625 8.996094 C 0.402344 9.222656 0 9.808594 0 10.457031 L 0 14.0625 C 0 14.925781 0.699219 15.625 1.5625 15.625 L 48.4375 15.625 C 49.300781 15.625 50 14.925781 50 14.0625 L 50 10.457031 C 50 9.804688 49.59375 9.222656 48.984375 8.996094 Z M 6.25 18.75 L 6.25 34.375 L 4.6875 34.375 C 3.824219 34.375 3.125 35.074219 3.125 35.9375 L 3.125 40.625 L 46.875 40.625 L 46.875 35.9375 C 46.875 35.074219 46.175781 34.375 45.3125 34.375 L 43.75 34.375 L 43.75 18.75 L 37.5 18.75 L 37.5 34.375 L 28.125 34.375 L 28.125 18.75 L 21.875 18.75 L 21.875 34.375 L 12.5 34.375 L 12.5 18.75 Z M 48.4375 43.75 L 1.5625 43.75 C 0.699219 43.75 0 44.449219 0 45.3125 L 0 48.4375 C 0 49.300781 0.699219 50 1.5625 50 L 48.4375 50 C 49.300781 50 50 49.300781 50 48.4375 L 50 45.3125 C 50 44.449219 49.300781 43.75 48.4375 43.75 Z M 48.4375 43.75 "/>
</g>
</svg>
