<?xml version="1.0" encoding="UTF-8"?>
<svg xmlns="http://www.w3.org/2000/svg" xmlns:xlink="http://www.w3.org/1999/xlink" width="50pt" height="50pt" viewBox="0 0 50 50" version="1.1">
<g id="surface1">
<path style=" stroke:none;fill-rule:nonzero;fill:rgb(100%,100%,100%);fill-opacity:1;" d="M 21.789062 49.953125 L 17.023438 48.222656 C 16.523438 48.046875 16.242188 47.390625 16.382812 46.765625 L 27.046875 0.847656 C 27.1875 0.222656 27.710938 -0.128906 28.210938 0.046875 L 32.976562 1.777344 C 33.476562 1.953125 33.757812 2.609375 33.617188 3.234375 L 22.953125 49.148438 C 22.804688 49.773438 22.289062 50.136719 21.789062 49.953125 Z M 12.882812 38.992188 L 16.28125 34.460938 C 16.640625 33.984375 16.617188 33.222656 16.21875 32.785156 L 9.140625 25 L 16.21875 17.21875 C 16.617188 16.777344 16.648438 16.015625 16.28125 15.539062 L 12.882812 11.007812 C 12.53125 10.539062 11.9375 10.507812 11.554688 10.957031 L 0.296875 24.140625 C -0.101562 24.597656 -0.101562 25.390625 0.296875 25.851562 L 11.554688 39.042969 C 11.9375 39.492188 12.53125 39.472656 12.882812 38.992188 Z M 38.445312 39.054688 L 49.703125 25.859375 C 50.101562 25.402344 50.101562 24.609375 49.703125 24.152344 L 38.445312 10.945312 C 38.070312 10.507812 37.476562 10.527344 37.117188 10.996094 L 33.71875 15.527344 C 33.359375 16.007812 33.382812 16.765625 33.78125 17.207031 L 40.859375 25 L 33.78125 32.78125 C 33.382812 33.222656 33.351562 33.984375 33.71875 34.460938 L 37.117188 38.992188 C 37.46875 39.472656 38.0625 39.492188 38.445312 39.054688 Z M 38.445312 39.054688 "/>
</g>
</svg>
