<?xml version="1.0" encoding="UTF-8"?>
<svg xmlns="http://www.w3.org/2000/svg" xmlns:xlink="http://www.w3.org/1999/xlink" width="50pt" height="50pt" viewBox="0 0 50 50" version="1.1">
<g id="surface1">
<path style=" stroke:none;fill-rule:nonzero;fill:rgb(100%,100%,100%);fill-opacity:1;" d="M 22.71875 22.789062 C 21.460938 24.011719 21.460938 25.988281 22.71875 27.210938 C 23.980469 28.429688 26.023438 28.429688 27.28125 27.210938 C 28.542969 25.988281 28.542969 24.007812 27.28125 22.789062 C 26.019531 21.570312 23.980469 21.570312 22.71875 22.789062 Z M 25 0.78125 C 11.191406 0.78125 0 11.625 0 25 C 0 38.375 11.191406 49.21875 25 49.21875 C 38.808594 49.21875 50 38.375 50 25 C 50 11.625 38.808594 0.78125 25 0.78125 Z M 37.714844 15.238281 L 31.066406 29.335938 C 30.742188 30.019531 30.179688 30.5625 29.476562 30.875 L 14.925781 37.320312 C 13.246094 38.0625 11.515625 36.386719 12.285156 34.757812 L 18.933594 20.664062 C 19.257812 19.980469 19.820312 19.433594 20.523438 19.125 L 35.074219 12.679688 C 36.753906 11.9375 38.484375 13.613281 37.714844 15.238281 Z M 37.714844 15.238281 "/>
</g>
</svg>
