<?xml version="1.0" encoding="UTF-8"?>
<svg xmlns="http://www.w3.org/2000/svg" xmlns:xlink="http://www.w3.org/1999/xlink" width="50pt" height="50pt" viewBox="0 0 50 50" version="1.1">
<g id="surface1">
<path style=" stroke:none;fill-rule:nonzero;fill:rgb(100%,100%,100%);fill-opacity:1;" d="M 36.320312 22.792969 L 17.570312 19.707031 C 15.398438 19.355469 13.890625 18.210938 13.890625 16.945312 C 13.890625 15.351562 16.179688 14.0625 19.011719 14.0625 L 30.519531 14.0625 C 32.640625 14.0625 34.722656 14.421875 36.457031 15.085938 C 37.515625 15.488281 38.941406 15.390625 39.84375 14.890625 L 45.886719 11.570312 C 47.117188 10.898438 46.945312 9.773438 45.574219 9.179688 C 41.320312 7.304688 36.007812 6.257812 30.554688 6.25 L 30.554688 1.5625 C 30.554688 0.703125 29.304688 0 27.777344 0 L 22.222656 0 C 20.695312 0 19.445312 0.703125 19.445312 1.5625 L 19.445312 6.25 L 19.011719 6.25 C 7.953125 6.25 -0.9375 11.59375 0.0859375 17.929688 C 0.816406 22.429688 6.925781 26.09375 14.636719 27.363281 L 32.429688 30.292969 C 34.601562 30.652344 36.109375 31.789062 36.109375 33.054688 C 36.109375 34.648438 33.820312 35.9375 30.988281 35.9375 L 19.480469 35.9375 C 17.359375 35.9375 15.277344 35.578125 13.542969 34.914062 C 12.484375 34.511719 11.058594 34.609375 10.15625 35.109375 L 4.113281 38.429688 C 2.882812 39.101562 3.054688 40.226562 4.425781 40.820312 C 8.679688 42.695312 13.992188 43.742188 19.445312 43.75 L 19.445312 48.4375 C 19.445312 49.296875 20.695312 50 22.222656 50 L 27.777344 50 C 29.304688 50 30.554688 49.296875 30.554688 48.4375 L 30.554688 43.730469 C 38.644531 43.640625 46.234375 40.9375 48.90625 36.632812 C 52.640625 30.617188 46.371094 24.445312 36.320312 22.792969 Z M 36.320312 22.792969 "/>
</g>
</svg>
