<?xml version="1.0" encoding="UTF-8"?>
<svg xmlns="http://www.w3.org/2000/svg" xmlns:xlink="http://www.w3.org/1999/xlink" width="50pt" height="50pt" viewBox="0 0 50 50" version="1.1">
<g id="surface1">
<path style=" stroke:none;fill-rule:nonzero;fill:rgb(100%,100%,100%);fill-opacity:1;" d="M 38.125 18.75 L 26.25 18.75 L 26.25 24.21875 C 26.25 28.09375 23.726562 31.25 20.625 31.25 C 17.523438 31.25 15 28.09375 15 24.21875 L 15 12.34375 L 9.929688 16.152344 C 8.421875 17.273438 7.5 19.316406 7.5 21.503906 L 7.5 26.125 L 1.25 30.632812 C 0.0546875 31.492188 -0.359375 33.40625 0.335938 34.902344 L 6.585938 48.4375 C 7.273438 49.929688 8.804688 50.4375 10 49.578125 L 18.078125 43.75 L 28.75 43.75 C 31.507812 43.75 33.75 40.945312 33.75 37.5 L 35 37.5 C 36.382812 37.5 37.5 36.101562 37.5 34.375 L 37.5 28.125 L 38.125 28.125 C 39.164062 28.125 40 27.078125 40 25.78125 L 40 21.09375 C 40 19.796875 39.164062 18.75 38.125 18.75 Z M 49.664062 15.097656 L 43.414062 1.5625 C 42.726562 0.0703125 41.195312 -0.4375 40 0.421875 L 31.921875 6.25 L 23.9375 6.25 C 23 6.25 22.085938 6.582031 21.289062 7.195312 L 18.671875 9.238281 C 17.9375 9.804688 17.5 10.808594 17.5 11.882812 L 17.5 24.21875 C 17.5 26.378906 18.898438 28.125 20.625 28.125 C 22.351562 28.125 23.75 26.378906 23.75 24.21875 L 23.75 15.625 L 38.125 15.625 C 40.539062 15.625 42.5 18.078125 42.5 21.09375 L 42.5 23.875 L 48.75 19.367188 C 49.945312 18.496094 50.351562 16.59375 49.664062 15.097656 Z M 49.664062 15.097656 "/>
</g>
</svg>
