<svg xmlns="http://www.w3.org/2000/svg" aria-hidden="true" focusable="false" data-prefix="fas" data-icon="search-location" role="img" width="512" height="512" style=""><rect id="backgroundrect" width="100%" height="100%" x="0" y="0" fill="none" stroke="none"/><g class="currentLayer" style=""><title>Layer 1</title><path fill="#ffffff" d="M505.76992700338366,442.66 l-99.71,-99.69 c-4.5,-4.5 -10.6,-7 -17,-7 h-16.3 c27.6,-35.3 44,-79.69 44,-127.99 C416.7599270033836,93.09 323.64992700338365,0 208.74992700338365,0 S0.7299270033836365,93.09 0.7299270033836365,207.98 s93.11,207.98 208.02,207.98 c48.3,0 92.71,-16.4 128.01,-44 v16.3 c0,6.4 2.5,12.5 7,17 l99.71,99.69 c9.4,9.4 24.6,9.4 33.9,0 l28.3,-28.3 c9.4,-9.4 9.4,-24.59 0.1,-33.99 zm-297.02,-90.7 c-79.54,0 -144,-64.34 -144,-143.98 c0,-79.53 64.35,-143.98 144,-143.98 c79.54,0 144,64.34 144,143.98 c0,79.53 -64.35,143.98 -144,143.98 zm0.020000000000000004,-239.96 c-40.78,0 -73.84,33.05 -73.84,73.83 c0,32.96 48.26,93.05 66.75,114.86 a9.24,9.24 0 0 0 14.18,0 c18.49,-21.81 66.75,-81.89 66.75,-114.86 c0,-40.78 -33.06,-73.83 -73.84,-73.83 zm0,96 c-13.26,0 -24,-10.75 -24,-24 c0,-13.26 10.75,-24 24,-24 s24,10.74 24,24 c0,13.25 -10.75,24 -24,24 z" id="svg_1" class="selected" fill-opacity="1"/></g></svg>