<?xml version="1.0" encoding="UTF-8"?>
<svg xmlns="http://www.w3.org/2000/svg" xmlns:xlink="http://www.w3.org/1999/xlink" width="50pt" height="50pt" viewBox="0 0 50 50" version="1.1">
<g id="surface1">
<path style=" stroke:none;fill-rule:nonzero;fill:rgb(100%,100%,100%);fill-opacity:1;" d="M 49.390625 43.226562 L 39.652344 33.492188 C 39.214844 33.054688 38.617188 32.808594 37.992188 32.808594 L 36.402344 32.808594 C 39.097656 29.363281 40.699219 25.027344 40.699219 20.3125 C 40.699219 9.089844 31.605469 0 20.386719 0 C 9.164062 0 0.0703125 9.089844 0.0703125 20.3125 C 0.0703125 31.53125 9.164062 40.621094 20.386719 40.621094 C 25.101562 40.621094 29.4375 39.019531 32.886719 36.324219 L 32.886719 37.917969 C 32.886719 38.539062 33.128906 39.136719 33.570312 39.578125 L 43.308594 49.3125 C 44.226562 50.230469 45.710938 50.230469 46.617188 49.3125 L 49.382812 46.546875 C 50.300781 45.628906 50.300781 44.148438 49.390625 43.226562 Z M 20.386719 34.371094 C 12.617188 34.371094 6.324219 28.085938 6.324219 20.3125 C 6.324219 12.542969 12.605469 6.25 20.386719 6.25 C 28.152344 6.25 34.449219 12.53125 34.449219 20.3125 C 34.449219 28.078125 28.164062 34.371094 20.386719 34.371094 Z M 20.386719 10.9375 C 16.40625 10.9375 13.175781 14.164062 13.175781 18.148438 C 13.175781 21.367188 17.890625 27.234375 19.695312 29.363281 C 19.867188 29.570312 20.121094 29.6875 20.386719 29.6875 C 20.65625 29.6875 20.910156 29.570312 21.078125 29.363281 C 22.886719 27.234375 27.597656 21.367188 27.597656 18.148438 C 27.597656 14.164062 24.371094 10.9375 20.386719 10.9375 Z M 20.386719 20.3125 C 19.09375 20.3125 18.042969 19.261719 18.042969 17.96875 C 18.042969 16.675781 19.09375 15.625 20.386719 15.625 C 21.679688 15.625 22.730469 16.675781 22.730469 17.96875 C 22.730469 19.261719 21.679688 20.3125 20.386719 20.3125 Z M 20.386719 20.3125 "/>
</g>
</svg>
