<?xml version="1.0" encoding="UTF-8"?>
<svg xmlns="http://www.w3.org/2000/svg" xmlns:xlink="http://www.w3.org/1999/xlink" width="50pt" height="50pt" viewBox="0 0 50 50" version="1.1">
<g id="surface1">
<path style=" stroke:none;fill-rule:nonzero;fill:rgb(100%,100%,100%);fill-opacity:1;" d="M 18.890625 41.421875 C 18.632812 40.84375 18.1875 40.785156 18.007812 40.785156 C 17.828125 40.785156 17.382812 40.839844 17.136719 41.386719 L 16.472656 42.886719 C 15.917969 44.132812 14.300781 43.996094 13.914062 42.683594 L 12.453125 37.753906 L 11.53125 40.867188 C 11.019531 42.589844 9.589844 43.75 7.972656 43.75 L 6.898438 43.75 C 6.128906 43.75 5.507812 43.050781 5.507812 42.1875 C 5.507812 41.324219 6.128906 40.625 6.898438 40.625 L 7.972656 40.625 C 8.390625 40.625 8.761719 40.324219 8.894531 39.875 L 10.476562 34.539062 C 10.761719 33.582031 11.554688 32.9375 12.453125 32.9375 C 13.351562 32.9375 14.144531 33.582031 14.429688 34.539062 L 15.632812 38.609375 C 17.347656 37.027344 20.328125 37.660156 21.363281 39.992188 C 21.527344 40.359375 21.839844 40.570312 22.175781 40.601562 L 22.175781 32.582031 L 33.285156 20.171875 L 33.285156 15.625 L 21.480469 15.625 C 20.335938 15.625 19.398438 14.570312 19.398438 13.28125 L 19.398438 0 L 2.035156 0 C 0.882812 0 -0.046875 1.046875 -0.046875 2.34375 L -0.046875 47.65625 C -0.046875 48.953125 0.882812 50 2.035156 50 L 31.203125 50 C 32.355469 50 33.285156 48.953125 33.285156 47.65625 L 33.285156 43.75 L 22.175781 43.738281 C 20.773438 43.710938 19.519531 42.832031 18.890625 41.421875 Z M 33.285156 11.90625 C 33.285156 11.289062 33.070312 10.695312 32.679688 10.253906 L 24.179688 0.683594 C 23.789062 0.242188 23.257812 0 22.703125 0 L 22.175781 0 L 22.175781 12.5 L 33.285156 12.5 Z M 24.953125 33.882812 L 24.953125 40.625 L 30.941406 40.625 L 44.976562 24.726562 L 39.082031 18.101562 Z M 49.304688 16.339844 L 46.539062 13.230469 C 45.675781 12.257812 44.273438 12.257812 43.414062 13.230469 L 41.046875 15.890625 L 46.9375 22.519531 L 49.304688 19.859375 C 50.167969 18.886719 50.167969 17.3125 49.304688 16.339844 Z M 49.304688 16.339844 "/>
</g>
</svg>
