<svg xmlns="http://www.w3.org/2000/svg" aria-hidden="true" focusable="false" data-prefix="fas" data-icon="file-signature" role="img" width="576" height="512"><rect id="backgroundrect" width="100%" height="100%" x="0" y="0" fill="none" stroke="none"/><g class="currentLayer" style=""><title>Layer 1</title><path fill="#ffffff" d="M217.6205494236946,424.14 c-2.95,-5.92 -8.09,-6.52 -10.17,-6.52 s-7.22,0.5900000000000001 -10.02,6.19 l-7.67,15.34 c-6.37,12.78 -25.03,11.37 -29.48,-2.09 L143.4505494236946,386.59 l-10.61,31.88 c-5.890000000000001,17.66 -22.38,29.53 -41,29.53 H79.45054942369461 c-8.84,0 -16,-7.16 -16,-16 s7.16,-16 16,-16 h12.39 c4.83,0 9.11,-3.08 10.64,-7.66 l18.19,-54.64 c3.3,-9.81 12.44,-16.41 22.78,-16.41 s19.48,6.59 22.77,16.41 l13.88,41.64 c19.75,-16.19 54.06,-9.7 66,14.16 c1.8900000000000001,3.7800000000000002 5.49,5.95 9.36,6.26 v-82.12 l128,-127.09 V160 H247.4505494236946 c-13.2,0 -24,-10.8 -24,-24 V0 H23.45054942369461 C10.15054942369461,0 -0.5494505763053894,10.7 -0.5494505763053894,24 v464 c0,13.3 10.7,24 24,24 h336 c13.3,0 24,-10.7 24,-24 v-40 l-128,-0.11000000000000001 c-16.12,-0.31000000000000005 -30.58,-9.28 -37.83,-23.75 zM383.4505494236946,121.9 c0,-6.3 -2.5,-12.4 -7,-16.9 L278.55054942369463,7 c-4.5,-4.5 -10.6,-7 -17,-7 H255.4505494236946 v128 h128 v-6.1 zm-96,225.06 V416 h68.99 l161.68,-162.78 l-67.88,-67.88 L287.4505494236946,346.96 zm280.54,-179.63 l-31.87,-31.87 c-9.94,-9.94 -26.07,-9.94 -36.01,0 l-27.25,27.25 l67.88,67.88 l27.25,-27.25 c9.95,-9.94 9.95,-26.07 0,-36.01 z" id="svg_1" class="selected" fill-opacity="1"/></g></svg>