<?xml version="1.0" encoding="UTF-8"?>
<svg xmlns="http://www.w3.org/2000/svg" xmlns:xlink="http://www.w3.org/1999/xlink" width="50pt" height="50pt" viewBox="0 0 50 50" version="1.1">
<g id="surface1">
<path style=" stroke:none;fill-rule:nonzero;fill:rgb(100%,100%,100%);fill-opacity:1;" d="M 50 23.4375 C 50 21.128906 48.875 19.136719 47.222656 18.054688 L 47.222656 3.125 C 47.222656 2.273438 46.617188 0 44.445312 0 C 43.828125 0 43.210938 0.234375 42.710938 0.6875 L 35.328125 7.328125 C 31.621094 10.664062 26.96875 12.5 22.222656 12.5 L 5.554688 12.5 C 2.488281 12.5 0 15.296875 0 18.75 L 0 28.125 C 0 31.578125 2.488281 34.375 5.554688 34.375 L 8.480469 34.375 C 8.359375 35.398438 8.292969 36.4375 8.292969 37.5 C 8.292969 41.382812 9.09375 45.054688 10.511719 48.335938 C 10.960938 49.378906 11.945312 50 12.976562 50 L 19.421875 50 C 21.683594 50 23.042969 47.085938 21.671875 45.0625 C 20.25 42.960938 19.402344 40.339844 19.402344 37.5 C 19.402344 36.414062 19.542969 35.371094 19.785156 34.375 L 22.222656 34.375 C 26.96875 34.375 31.621094 36.210938 35.328125 39.546875 L 42.710938 46.1875 C 43.203125 46.632812 43.8125 46.875 44.445312 46.875 C 46.605469 46.875 47.222656 44.648438 47.222656 43.75 L 47.222656 28.820312 C 48.875 27.738281 50 25.746094 50 23.4375 Z M 41.667969 37.25 L 38.796875 34.664062 C 34.109375 30.445312 28.222656 28.125 22.222656 28.125 L 22.222656 18.75 C 28.222656 18.75 34.109375 16.429688 38.796875 12.210938 L 41.667969 9.625 Z M 41.667969 37.25 "/>
</g>
</svg>
